<svg xmlns="http://www.w3.org/2000/svg" viewBox="0 0 512 512" width="512" height="512">
  <defs>
    <linearGradient id="bg" x1="0%" y1="0%" x2="100%" y2="100%">
      <stop offset="0%" stop-color="#4f46e5" />
      <stop offset="100%" stop-color="#312e81" />
    </linearGradient>
    <linearGradient id="shieldGrad" x1="0%" y1="0%" x2="0%" y2="100%">
      <stop offset="0%" stop-color="#ffffff" stop-opacity="0.95" />
      <stop offset="100%" stop-color="#e0e7ff" stop-opacity="0.8" />
    </linearGradient>
    <filter id="shadow" x="-10%" y="-10%" width="120%" height="120%">
      <feDropShadow dx="0" dy="12" stdDeviation="15" flood-opacity="0.3" />
    </filter>
  </defs>
  
  <rect width="512" height="512" fill="url(#bg)" rx="112" ry="112" />
  
  <!-- Shield Motif -->
  <path d="M256 100 C256 100, 384 132, 384 132 C384 300, 256 420, 256 420 C256 420, 128 300, 128 132 C128 132, 256 100, 256 100 Z" fill="url(#shieldGrad)" filter="url(#shadow)" />
  
  <!-- Abstract Hourglass -->
  <path d="M206 180 L306 180 C306 220, 276 240, 256 256 C276 272, 306 292, 306 332 L206 332 C206 292, 236 272, 256 256 C236 240, 206 220, 206 180 Z" fill="#4f46e5" />
  
  <circle cx="256" cy="210" r="16" fill="#e0e7ff" />
  <circle cx="256" cy="302" r="22" fill="#e0e7ff" />
</svg>
